<svg id="visual" viewBox="0 0 900 450" width="900" height="450" xmlns="http://www.w3.org/2000/svg" xmlns:xlink="http://www.w3.org/1999/xlink" version="1.1"><g><g transform="translate(57 243)"><path d="M0 -56.9L49.3 -28.4L49.3 28.4L0 56.9L-49.3 28.4L-49.3 -28.4Z" stroke="#CCCCCC" fill="none" stroke-width="2"></path></g><g transform="translate(802 312)"><path d="M0 -20L17.3 -10L17.3 10L0 20L-17.3 10L-17.3 -10Z" stroke="#CCCCCC" fill="none" stroke-width="2"></path></g><g transform="translate(367 132)"><path d="M0 -15L13 -7.5L13 7.5L0 15L-13 7.5L-13 -7.5Z" stroke="#CCCCCC" fill="none" stroke-width="2"></path></g><g transform="translate(247 337)"><path d="M0 -33L28.6 -16.5L28.6 16.5L0 33L-28.6 16.5L-28.6 -16.5Z" stroke="#CCCCCC" fill="none" stroke-width="2"></path></g><g transform="translate(492 351)"><path d="M0 -35L30.3 -17.5L30.3 17.5L0 35L-30.3 17.5L-30.3 -17.5Z" stroke="#CCCCCC" fill="none" stroke-width="2"></path></g><g transform="translate(737 79)"><path d="M0 -9L7.8 -4.5L7.8 4.5L0 9L-7.8 4.5L-7.8 -4.5Z" stroke="#CCCCCC" fill="none" stroke-width="2"></path></g><g transform="translate(702 386)"><path d="M0 -27L23.4 -13.5L23.4 13.5L0 27L-23.4 13.5L-23.4 -13.5Z" stroke="#CCCCCC" fill="none" stroke-width="2"></path></g><g transform="translate(549 233)"><path d="M0 -28L24.2 -14L24.2 14L0 28L-24.2 14L-24.2 -14Z" stroke="#CCCCCC" fill="none" stroke-width="2"></path></g><g transform="translate(218 180)"><path d="M0 -19L16.5 -9.5L16.5 9.5L0 19L-16.5 9.5L-16.5 -9.5Z" stroke="#CCCCCC" fill="none" stroke-width="2"></path></g><g transform="translate(665 221)"><path d="M0 -24L20.8 -12L20.8 12L0 24L-20.8 12L-20.8 -12Z" stroke="#CCCCCC" fill="none" stroke-width="2"></path></g><g transform="translate(104 72)"><path d="M0 -47L40.7 -23.5L40.7 23.5L0 47L-40.7 23.5L-40.7 -23.5Z" stroke="#CCCCCC" fill="none" stroke-width="2"></path></g><g transform="translate(584 94)"><path d="M0 -52L45 -26L45 26L0 52L-45 26L-45 -26Z" stroke="#CCCCCC" fill="none" stroke-width="2"></path></g><g transform="translate(363 354)"><path d="M0 -48L41.6 -24L41.6 24L0 48L-41.6 24L-41.6 -24Z" stroke="#CCCCCC" fill="none" stroke-width="2"></path></g><g transform="translate(461 66)"><path d="M0 -32L27.7 -16L27.7 16L0 32L-27.7 16L-27.7 -16Z" stroke="#CCCCCC" fill="none" stroke-width="2"></path></g><g transform="translate(99 382)"><path d="M0 -36L31.2 -18L31.2 18L0 36L-31.2 18L-31.2 -18Z" stroke="#CCCCCC" fill="none" stroke-width="2"></path></g><g transform="translate(824 172)"><path d="M0 -43L37.2 -21.5L37.2 21.5L0 43L-37.2 21.5L-37.2 -21.5Z" stroke="#CCCCCC" fill="none" stroke-width="2"></path></g><g transform="translate(405 240)"><path d="M0 -21L18.2 -10.5L18.2 10.5L0 21L-18.2 10.5L-18.2 -10.5Z" stroke="#CCCCCC" fill="none" stroke-width="2"></path></g><g transform="translate(221 59)"><path d="M0 -54L46.8 -27L46.8 27L0 54L-46.8 27L-46.8 -27Z" stroke="#CCCCCC" fill="none" stroke-width="2"></path></g></g></svg>